<?xml version="1.0" encoding="UTF-8"?>
<svg id="Layer_2" data-name="Layer 2" xmlns="http://www.w3.org/2000/svg" viewBox="0 0 144.29 125.55">
  <defs>
    <style>
      .cls-1 {
        fill: #0d9347;
        fill-rule: evenodd;
        stroke-width: 0px;
      }
    </style>
  </defs>
  <g id="Layer_1-2" data-name="Layer 1">
    <path class="cls-1" d="M44.36,71.62c2.3,1.78,5.54,2.9,5.82,6.09-3.49-.9-3.56,3.65-6.1,4.8-2.43,1.1-7.21.02-10.15,1.54l-1.76,9.28c-.03,1.48.36,2.37.32,3.69-10.11.91-37.17-3.36-23.23-18.16,3.79-4.02,9.48-7.63,14.35-10.17,3.39-1.76,14.1-7.07,17.41-7.48,2.08,2.25,1.48,2.28,4.73,3.16.2,2.59-1.59,5.13-1.4,7.25h0ZM75.61,63.2l1.06,1.27c.79.87,2.95,3.88,3.31,4.92-1.59,1.87-2.71,2.91-2.14,5.8.4,2.02,1.98,3.32,3.76,4l2.36,10.54c-3.85,2.87-6.75,1.19-9.29,6.88-3.22,7.21,1.19,6.96,2.74,10.92-.83,1.06-1.26,1.35-2.61,1.58-1.6.27-1.43-.16-2.6-1-1.45-1.05-3.28-2.22-4.99-2.79-5.25-1.73-7.93.27-9.36,5.25l-6.81-.3c-.55.88-1.15,2.37-1.33,3.45-.31,1.92.59,2.12.41,4.14l-2.15.02c-2.64-2.86-2.99-2.61-6.44-4.22.29-2.37,3.29-2.45.45-5.69-1.93-2.2-3.67-1.36-6.16-2.21-.19-1.65.07-2.61.4-4.14.47-2.11-.28-2.64-.22-4.42l-.43-.27c.02-1.77-1.25-4.85.86-10.69,2.52-.43,6.14-.19,8.29-.91,3.01-1.02,3.16-2.29,4.39-4.74,2.19.06,2.57-.54,4.14-1.75.16-4.7-2.35-6.1-5.55-8.37-.02-.41,1.21-6.58,1.38-6.93.27-.56,1.27-1.13,1.87-2.33.77-1.53.47-1.95.59-3.67l3.97-1.28c-1.28-1.1-1.29-.37-1.49-2.42-1.64.04-2.59.94-4.35.72l-2.82-1.32c-1.14-1.2-3.04-20.6-2.91-22.99l2.4-.69c1.51.87,4.75,4.14,6.16,5.51,1.26,1.23,4.59,4.98,5.81,5.78l2.59-1.14c-.08-1.69-10.32-10.49-12.1-12.64.34-1.87.75-2.79-.08-4.68-.72-1.63-1.64-1.71-2.4-2.79l4.2-4.99c4.54-.04,6.23,1.85,10.82-.43,6.28-3.12,10.27-6.77,16-9.59,4.08-2.01,6.12-2.11,10.62-1.41,16.23,2.52,18.17,10.62,24.92,13.58,2.95,1.3,2.9-1.05,5.49.31,1.46.77,2.6,2.15,3.41,2.57,1.89,7.55,12.66,6.02,18.01,9.14-.38,1.59-3.5,4.51-5.26,5.17-1.38.52-3.34.7-4.58-.01-1.94-1.11-2.61-.26-4.58-.16-2.67-1.61-1.84-3.26-3.54-5.68-1.46-2.09-4.94-1.62-7.29-1.65-4.76-.07-12.54.12-17.09,1.11-.02.01-5.64,11.78,3.53,13.35-.22.53-1.24,1.57-1.69,2.34-.63,1.07-.82,1.7-1.3,2.88-3.03.39-6.28.41-9.32.78-2.97.36-5.94.83-8.99,1.12l-.36.7-.58-.65-.4-1.81,1.41-1.91c-.38-1.09-2.55-3.3-3.7-3.66-2.61,2.01-1.47,1.67-4.61.54l-.56-2.94-5.02.04-.44,2.86c-3.98,2.28-3.23-.6-4.91-.44-.89.39-3.14,2.7-3.48,3.68l1.57,2.14-.97,2.4-2.95.68.06,5.01,2.68.36,1.02,2.71-1.31,2.14c.41.91,2.48,2.99,3.39,3.46,1.15-.26,1.19-.76,2.26-1.27l2.62,1.05.53,2.62,5.09-.1.36-2.4,2.84-1.21,1.42,1.18h0ZM78.91,62.19l-.17-1.17,1.06-1.02-1.25-2c.05-1.03.49-2.04.96-3.01l2.16-.43c.48-.43.33.47.47-.79l.07-2.88c4.04-.6,10.55-1.68,14.53-1.55-.27,1.81-3.61,2.39-5.16,2.96-11.25,4.09-9.58,4.48-10.63,12.82l-2.04-2.93h0ZM81.05,120.18c-.51-.8-5.62-3.91-6.73-4.32.87,1.29,4.76,3.92,6.3,4.63,3.83,1.77,6.11,3.73,10.63,4.69,19.13,4.07,7.67-27.67,5.89-29.59-.03-2.23-6.52-14.34-8.4-17.69-1.45-2.59,1.38-4.42-1.53-7.64-1.22-1.35-1.76-1.12-3.14-1.85-.16-5.74-1.41-9.58,4.51-11.88,5.22-2.03,7.79-2.1,10.94-5.44,4.56,3.44,6.87,2.52,9.73-1.73,6.66-.38,29.68,3.22,18.79,16.82-2.85,3.55-6.51,5.56-7.08,6.53,2.06-.63,16.94-10.56,12.7-18.57-3.49-6.6-17.47-7.63-24.27-8.05-1.52-1.9-.61-1.7-3.06-3.4l.93-2.8c-2.52-1.99-5.58-1.21-7.4-2.32-1.92-1.18-.91-5.57-.26-7.32,4.25-.76,15.38-1.35,19.45-.67,1.98,1.4.86,4.33,4.37,6.44,2.51,1.51,2.28.42,4.2.43,1.95,0,6.3,3.13,11.93-2.47l4.75-5.79c-3.04-3.33-12.56-4.27-16.4-5.87-3.24-1.35-2.22-2.32-3.75-3.57-.36-2.37-5.83-5.66-8.4-4.95-1.6.45-1.07,1.33-4.52-1.51-8.16-6.69-10.01-9.57-21.94-11.8-13.02-2.44-17.37,4.98-28.69,10.82-4.6,2.37-7.11-.17-11.79.44-2,2.86-5.01,7.01-8.38,8.39-1.61-.76-4.18-2.78-5.92-3.82-5.6-3.36-16.02-8.34-19.62-.03-1.86,4.3-.49,12.17.82,16.59.72,2.45,3.99,12.19,5.29,13.65-.19-1.13-2.9-7.73-3.85-11.94-6.8-30.11,20.32-12.63,21.08-11.4.26,1.49-.08,2.59.68,4.05.59,1.13,1.35,1.41,2.02,2.33.25,4.04.66,8.62,1.07,12.65.21,1.99.43,4,.73,5.98.26,1.73,1.03,3.98,1.07,5.58-2.86,1.88-2.41,3.33-3.37,4.14-.72.61-21.15,6.58-34.44,18.18-6.8,5.94-9.22,13.2.53,17.78,7.76,3.65,17.71,3.24,26.29,3.49l.61,1.86c.25,2.72-.9,5.11-.39,8.54,2.28,1.25,5.55,1,6.86,2.27-.23,1.52-2.29,2.54-2.11,5.2,2.75,1.38,4.76,1.37,7.04,3.54,2.81,2.69,3.56,2.73,7.56,1.46,1.34-3.84-.07-4.23.41-6.83,2.37-.51,4.94.4,7.35.13.63-2.91,1.19-6.75,5.26-5.81,2.58.59,5.1,2.64,7.09,4.28,3.22.29,5.94-.57,7.65-3.24,1.55-2.42-2.48-5.01-3.21-6.79-1.02-2.49.79-6.16,3.14-7.21,2.58-1.15,4.98-1.96,7.15-3.69.05-3.15-2.77-8.99-2.24-11.96,1.46-.16,1.21.14,3.08,3.66.71,1.35,1.47,2.85,2.16,4.22.9,1.81,3.17,7.69,4,8.83.79,3.35,2.36,6.65,3.13,10.26,2.24,10.4,1.4,20.37-11.83,15.95-1.45-.48-3.24-1.57-4.45-1.87h0ZM61.09,53.7c-.7-4.1,1.76-8.17,5.84-8.86,4.09-.7,8.34,1.83,8.92,5.87,1.55,10.65-13.22,12.01-14.77,2.99Z"/>
  </g>
</svg>